<mxfile host="65bd71144e">
    <diagram id="k2c_2CLpF4SUihbJ_xLL" name="Page-1">
        <mxGraphModel dx="963" dy="616" grid="1" gridSize="10" guides="1" tooltips="1" connect="1" arrows="1" fold="1" page="1" pageScale="1" pageWidth="850" pageHeight="1100" math="0" shadow="0">
            <root>
                <mxCell id="0"/>
                <mxCell id="1" parent="0"/>
                <mxCell id="22" value="Defense in Depth - Layers Proposed" style="whiteSpace=wrap;html=1;verticalAlign=bottom;" vertex="1" parent="1">
                    <mxGeometry x="20" y="20" width="780" height="400" as="geometry"/>
                </mxCell>
                <mxCell id="21" value="Continuous Adversarial Testing (Ongoing)" style="rounded=0;whiteSpace=wrap;html=1;strokeWidth=3;fillColor=#0F172A;strokeColor=none;opacity=40;verticalAlign=top;fontSize=12;" vertex="1" parent="1">
                    <mxGeometry x="40" y="40" width="740" height="360" as="geometry"/>
                </mxCell>
                <mxCell id="15" style="edgeStyle=none;html=1;entryX=0;entryY=0.5;entryDx=0;entryDy=0;strokeColor=#DC2626;strokeWidth=9;" edge="1" parent="1" source="9" target="10">
                    <mxGeometry relative="1" as="geometry"/>
                </mxCell>
                <mxCell id="9" value="Rate Limiting" style="rounded=0;whiteSpace=wrap;html=1;strokeWidth=1;fillColor=#3B82F6;strokeColor=default;fontColor=#0F172A;opacity=60;" vertex="1" parent="1">
                    <mxGeometry x="60" y="100" width="80" height="120" as="geometry"/>
                </mxCell>
                <mxCell id="16" style="edgeStyle=none;html=1;entryX=0;entryY=0.5;entryDx=0;entryDy=0;strokeColor=#DC2626;strokeWidth=7;" edge="1" parent="1" source="10" target="11">
                    <mxGeometry relative="1" as="geometry"/>
                </mxCell>
                <mxCell id="10" value="Input Validation" style="rounded=0;whiteSpace=wrap;html=1;strokeWidth=1;fillColor=#14B8A6;strokeColor=default;fontColor=#0F172A;opacity=60;" vertex="1" parent="1">
                    <mxGeometry x="220" y="100" width="80" height="120" as="geometry"/>
                </mxCell>
                <mxCell id="18" style="edgeStyle=none;html=1;entryX=0;entryY=0.5;entryDx=0;entryDy=0;strokeColor=#DC2626;strokeWidth=5;" edge="1" parent="1" source="11" target="12">
                    <mxGeometry relative="1" as="geometry"/>
                </mxCell>
                <mxCell id="11" value="Contextual Separation" style="rounded=0;whiteSpace=wrap;html=1;strokeWidth=1;fillColor=#FACC15;strokeColor=default;fontColor=#0F172A;opacity=60;" vertex="1" parent="1">
                    <mxGeometry x="380" y="100" width="80" height="120" as="geometry"/>
                </mxCell>
                <mxCell id="19" style="edgeStyle=none;html=1;strokeColor=#DC2626;strokeWidth=3;" edge="1" parent="1" source="12" target="14">
                    <mxGeometry relative="1" as="geometry"/>
                </mxCell>
                <mxCell id="12" value="Hardened Prompting" style="rounded=0;whiteSpace=wrap;html=1;strokeWidth=1;fillColor=#EA580C;strokeColor=default;fontColor=#0F172A;opacity=60;" vertex="1" parent="1">
                    <mxGeometry x="540" y="100" width="80" height="120" as="geometry"/>
                </mxCell>
                <mxCell id="13" value="Output Monitoring" style="rounded=0;whiteSpace=wrap;html=1;strokeWidth=1;fillColor=#A5B4FC;strokeColor=default;fontColor=#0F172A;opacity=60;" vertex="1" parent="1">
                    <mxGeometry x="540" y="260" width="80" height="120" as="geometry"/>
                </mxCell>
                <mxCell id="20" style="edgeStyle=none;html=1;strokeColor=#DC2626;" edge="1" parent="1" source="14" target="13">
                    <mxGeometry relative="1" as="geometry"/>
                </mxCell>
                <mxCell id="14" value="LLM" style="ellipse;whiteSpace=wrap;html=1;aspect=fixed;strokeWidth=3;fillColor=#E2E8F0;strokeColor=#475569;fontColor=#0F172A;" vertex="1" parent="1">
                    <mxGeometry x="700" y="200" width="60" height="60" as="geometry"/>
                </mxCell>
            </root>
        </mxGraphModel>
    </diagram>
</mxfile>